<svg viewBox="0 0 747 747" fill="currentColor" xmlns="http://www.w3.org/2000/svg">
<path fill-rule="evenodd" clip-rule="evenodd" d="M604.403 7.48753L739.149 142.274L739.153 142.27C744.633 147.718 747.258 155.488 746.539 164.092C745.825 173.15 741.539 181.993 734.508 189.019L681.799 241.727L593.893 153.847C593.865 153.808 593.833 153.769 593.798 153.73C593.753 153.681 593.703 153.631 593.653 153.581C593.565 153.493 593.476 153.373 593.388 153.284C593.294 153.196 593.205 153.102 593.117 153.045C593.028 152.956 592.909 152.868 592.82 152.779L504.945 64.8726L557.653 12.1646C571.824 -2.01247 592.788 -4.0958 604.403 7.48753ZM65.8428 503.981L494.416 75.3943L577.588 158.566L149.015 587.153L65.8428 503.981ZM588.109 169.074L159.522 597.661L242.694 680.833L671.281 252.246L588.109 169.074ZM228.227 687.445L0 746.674L59.2267 518.445L228.227 687.445Z" />
</svg>
